<svg xmlns="http://www.w3.org/2000/svg" viewBox="0 0 64 64" width="64" height="64">
  <circle cx="32" cy="32" r="30" fill="white"/>
  <!-- Thicc curved stylized f — one smooth path -->
  <path d="
    M23 55
    L23 36
    L17.5 36
    C16 36 16 29 17.5 29
    L23 29
    C23 18 24.5 12 29 9
    C33 5.5 39 6 44 8
    C45 8.5 45 10 44 10.8
    L40.5 13
    C39.8 13.5 38.8 13.2 38 13
    C35 12 32.5 12.5 31 14.5
    C29.5 16.5 29 19.5 29 29
    L37 29
    C38.5 29 38.5 36 37 36
    L29 36
    L29 55
    C29 56.5 23 56.5 23 55
    Z
  " fill="#111"/>
</svg>